<mxfile host="app.diagrams.net" modified="2023-03-18T03:35:24.323Z" agent="5.0 (Windows NT 10.0; Win64; x64) AppleWebKit/537.36 (KHTML, like Gecko) Chrome/111.0.0.0 Safari/537.36" etag="-GhfOKPmA7ISj9D6D3-K" version="21.0.2" type="github">
  <diagram name="Page-1" id="cAYskh1YpXHnIoTAUcqv">
    <mxGraphModel dx="1515" dy="803" grid="1" gridSize="10" guides="1" tooltips="1" connect="1" arrows="1" fold="1" page="1" pageScale="1" pageWidth="1169" pageHeight="827" math="0" shadow="0">
      <root>
        <mxCell id="0" />
        <mxCell id="1" parent="0" />
        <mxCell id="NQHNyTpeudHf5BlYXRnl-6" value="" style="shape=actor;whiteSpace=wrap;html=1;" vertex="1" parent="1">
          <mxGeometry x="80" y="200" width="80" height="110" as="geometry" />
        </mxCell>
        <mxCell id="NQHNyTpeudHf5BlYXRnl-10" value="" style="sketch=0;outlineConnect=0;fontColor=#232F3E;gradientColor=none;fillColor=#232F3D;strokeColor=none;dashed=0;verticalLabelPosition=bottom;verticalAlign=top;align=center;html=1;fontSize=12;fontStyle=0;aspect=fixed;pointerEvents=1;shape=mxgraph.aws4.mobile_client;" vertex="1" parent="1">
          <mxGeometry x="530" y="210" width="73.59" height="140" as="geometry" />
        </mxCell>
        <mxCell id="NQHNyTpeudHf5BlYXRnl-11" value="" style="shape=cylinder3;whiteSpace=wrap;html=1;boundedLbl=1;backgroundOutline=1;size=15;" vertex="1" parent="1">
          <mxGeometry x="890" y="220" width="60" height="80" as="geometry" />
        </mxCell>
        <mxCell id="NQHNyTpeudHf5BlYXRnl-12" value="" style="shape=image;html=1;verticalAlign=top;verticalLabelPosition=bottom;labelBackgroundColor=#ffffff;imageAspect=0;aspect=fixed;image=https://cdn0.iconfinder.com/data/icons/web-development-and-studio/512/138_Attachment_Attach_Clip_Add-128.png" vertex="1" parent="1">
          <mxGeometry x="603.59" y="100" width="88" height="88" as="geometry" />
        </mxCell>
        <mxCell id="NQHNyTpeudHf5BlYXRnl-13" value="" style="rounded=1;whiteSpace=wrap;html=1;" vertex="1" parent="1">
          <mxGeometry x="760" y="20" width="250" height="100" as="geometry" />
        </mxCell>
      </root>
    </mxGraphModel>
  </diagram>
</mxfile>
